<?xml version="1.0" encoding="UTF-8"?>
<svg id="Layer_1" data-name="Layer 1" xmlns="http://www.w3.org/2000/svg" viewBox="0 0 158.37 95.35">
  <path d="M15.69,65.51c-.07-1.1-.17-2.73-.27-4.89s-.18-4.62-.22-7.37c-.04-2.75-.13-5.65-.27-8.69-.15-3.04-.27-5.92-.38-8.63-.11-2.71-.18-5.15-.22-7.32-.04-2.16-.06-3.79-.06-4.9,0-.37-.02-.99-.05-1.87-.04-.88-.06-1.81-.06-2.81s.02-1.92.06-2.81c.04-.88.05-1.47.05-1.76-.73.29-1.59.88-2.58,1.76-.99.88-2.03,1.85-3.13,2.92-1.1,1.06-2.24,2.04-3.41,2.92-1.17.88-2.27,1.43-3.3,1.65-1.32-.81-1.93-1.83-1.81-3.08.11-1.25.77-2.57,1.98-3.96,1.21-1.39,2.84-2.82,4.9-4.29,2.05-1.47,4.31-2.9,6.76-4.29,2.46-1.39,4.99-2.64,7.59-3.74,2.6-1.1,5.08-2.02,7.42-2.75,2.35-.73,4.44-1.23,6.27-1.48,1.83-.26,3.19-.09,4.07.5,1.69,1.69,2.49,3.79,2.42,6.32-.07,2.53-.64,5.26-1.71,8.2-1.06,2.93-2.46,5.98-4.18,9.13-1.72,3.15-3.39,6.2-5,9.13-1.62,2.93-2.97,5.68-4.07,8.25-1.1,2.57-1.61,4.79-1.54,6.66s.94,3.25,2.59,4.12,4.46,1.1,8.41.66c1.98-.51,4.07-1.28,6.27-2.31,2.2-1.03,4.34-2.2,6.43-3.52s4.03-2.68,5.83-4.07c1.71-1.32,3.17-2.58,4.38-3.78.12-.12.29-.16.45-.12,1.94.51,2.82,1.27,3.03,2.25.22,1.03.02,2.15-1.04,3.4-1.06,1.25-2.62,2.55-4.67,3.91-2.05,1.36-4.38,2.68-6.99,3.96-2.6,1.28-5.32,2.42-8.14,3.41-2.82.99-5.54,1.76-8.14,2.31-2.6.55-4.93.79-6.98.71-2.05-.07-3.52-.59-4.4-1.54,0,.37-.04,1.01-.11,1.92s-.2,1.85-.38,2.8c-.18.95-.48,1.87-.88,2.75-.4.88-1.01,1.5-1.82,1.87-.59.22-1.17.13-1.76-.28-.59-.4-1.03-.82-1.32-1.26ZM20.42,45.93L36.81,9.3c-.44-1.39-1.15-2.37-2.14-2.92-.99-.55-2.11-.81-3.36-.77-1.25.04-2.51.31-3.79.82-1.28.51-2.47,1.16-3.57,1.93-1.1.77-2.02,1.58-2.75,2.42-.73.84-1.1,1.63-1.1,2.37l.33,32.78Z"/>
  <path d="M91.81,71.89c-.06-.24-.26-.69-.6-1.33-.34-.64-.6-1.06-.78-1.24-.55-.25-1.55-.6-2.99-1.06-1.44-.46-2.99-.98-4.65-1.56-1.66-.58-3.22-1.12-4.69-1.61-1.47-.49-2.52-.83-3.13-1.01-.12-.06-.43-.23-.92-.51-.49-.28-1.04-.58-1.66-.92s-1.17-.63-1.66-.87-.83-.37-1.01-.37c-.92,0-1.79.58-2.62,1.75s-1.67,2.59-2.53,4.28c-.86,1.69-1.75,3.48-2.67,5.38-.92,1.9-1.96,3.63-3.13,5.2-1.17,1.56-2.42,2.77-3.77,3.63-1.35.86-2.88,1.04-4.6.55v-2.58c.37-.43.92-1.12,1.66-2.07.74-.95,1.58-2.02,2.53-3.22.95-1.2,1.95-2.44,2.99-3.73,1.04-1.29,2.03-2.54,2.95-3.77.92-1.23,1.73-2.31,2.44-3.27.71-.95,1.24-1.67,1.61-2.16.61-.8.72-1.96.32-3.5-.4-1.53-1.01-3.16-1.84-4.88-.83-1.72-1.72-3.45-2.67-5.2s-1.62-3.25-2.02-4.51c-.4-1.26-.37-2.16.09-2.71.45-.54,1.63-.22,3.58.42.08.03.14.09.16.16.61,2.04,1.55,3.87,2.79,6.04s2.84,3.93,4.74,5.15c1.59-1.04,3.1-2.44,4.51-4.19s2.73-3.74,3.96-5.98c1.23-2.24,2.35-4.61,3.36-7.13,1.01-2.51,1.93-5,2.76-7.45.83-2.45,1.55-4.78,2.16-6.99s1.1-4.11,1.47-5.7c.43-.67,1-1.21,1.7-1.61.71-.4,1.43-.72,2.16-.97.31.43.52,1.52.64,3.27.12,1.75.18,3.86.18,6.35s-.04,5.26-.14,8.33c-.09,3.07-.15,6.15-.18,9.25-.03,3.1-.02,6.12.05,9.06.06,2.94.2,5.55.41,7.82.21,2.27.55,4.11,1.01,5.52.46,1.41,1.09,2.12,1.89,2.12h7.82v4.6h-6.53c-.86,0-1.2.57-1.01,1.7.18,1.14.64,2.56,1.38,4.28.74,1.72,1.58,3.63,2.53,5.75.95,2.12,1.76,4.15,2.44,6.12.67,1.96,1.06,3.72,1.15,5.29s-.35,2.68-1.33,3.36c-.18.12-.61.19-1.29.19s-1.13-.06-1.38-.19c-.18-.92-.64-2.48-1.38-4.69-.74-2.21-1.52-4.55-2.35-7.04-.83-2.48-1.62-4.81-2.39-6.99-.77-2.18-1.27-3.69-1.52-4.55ZM78.84,60.21c.3.18.87.45,1.7.78.83.34,1.72.72,2.67,1.15.95.43,1.89.81,2.81,1.15.92.34,1.56.6,1.93.78.12.06.32.09.6.09s.47-.03.6-.09c.24-2.02.26-4.58.05-7.68-.22-3.1-.49-6.26-.83-9.48-.34-3.22-.68-6.32-1.01-9.29-.34-2.97-.57-5.32-.69-7.04l-14.26,25.76c.18.18.6.46,1.24.83s1.29.75,1.93,1.15c.64.4,1.29.78,1.93,1.15.64.37,1.09.61,1.34.74Z"/>
  <g>
    <path d="M101.21,67.73c-.46-5.08-.75-10.18-.9-15.28-.14-5.1-.13-10.18.03-15.22.04-.21.18-.53.4-.96.23-.43.5-.85.81-1.24.31-.39.66-.66,1.05-.81.39-.14.8-.03,1.21.34l4.4,4.4,12.21,20.09.25.31c.21.25.44.5.71.74.27.25.55.44.84.59.29.15.56.16.81.03-.04-.58-.12-1.44-.22-2.57-.1-1.14-.22-2.41-.34-3.81-.12-1.4-.25-2.9-.37-4.49-.12-1.59-.25-3.1-.37-4.53-.12-1.43-.23-2.72-.31-3.88-.08-1.16-.12-1.98-.12-2.48-.04-.45-.06-1.2-.06-2.23s.05-2.18.16-3.44c.1-1.26.28-2.56.53-3.91.25-1.34.62-2.52,1.12-3.53.5-1.01,1.08-1.78,1.77-2.29.68-.52,1.52-.61,2.51-.28.17,0,.36.11.59.34.23.23.34.4.34.53-.29.29-.6.64-.93,1.05-.33.41-.65.86-.96,1.33-.31.48-.62.95-.93,1.43-.31.48-.51.94-.59,1.4-.04.46-.06,1.13-.06,2.01s-.01,1.92-.03,3.1c-.02,1.18-.02,2.39,0,3.63.02,1.24.03,2.46.03,3.66v2.98c0,.95.02,1.63.06,2.05,0,.29.03.94.09,1.95s.14,2.11.25,3.29c.1,1.18.21,2.28.31,3.32.1,1.03.15,1.7.15,1.98s0,.79.03,1.49.03,1.43.03,2.17,0,1.43-.03,2.05-.03,1.01-.03,1.18c-.04.17-.12.41-.25.74-.12.33-.31.64-.56.93s-.52.46-.81.53c-.29.06-.62-.09-.99-.46l-6.14-6.08-11.28-18.29-1.36-.87v27.03c0,.45-.15.74-.44.87s-.62.05-.96.06-.69-.22-1.02-.4c-.33-.19-.54-.36-.62-.53Z"/>
    <path d="M134.81,65.93c-1.08-.79-1.87-1.85-2.39-3.19-.52-1.34-.88-2.79-1.08-4.34-.21-1.55-.29-3.05-.25-4.5.04-1.45.1-2.67.19-3.66.04-.37.13-1.04.28-2.01.14-.97.31-2.02.5-3.16.19-1.14.37-2.2.56-3.19.19-.99.34-1.67.46-2.05.83-3.6,1.78-6.5,2.85-8.71,1.07-2.21,2.16-3.9,3.25-5.05,1.09-1.16,2.17-1.85,3.22-2.08,1.05-.23,2.01-.18,2.88.16.87.33,1.59.89,2.17,1.67.58.79.95,1.62,1.12,2.51.16.89.06,1.76-.31,2.6-.37.85-1.1,1.48-2.17,1.89-.17.04-.37.09-.62.16s-.5.09-.74.09-.45-.03-.59-.09-.22-.11-.22-.16v-5.21c0-.12-.18-.19-.53-.19s-.61.06-.78.19c-1.12.62-2.13,1.65-3.04,3.1-.91,1.45-1.71,3.02-2.39,4.71-.68,1.7-1.24,3.34-1.67,4.93-.43,1.59-.67,2.86-.71,3.81-.04.37-.08.94-.12,1.71-.04.77-.07,1.64-.09,2.64-.02.99-.03,2.03-.03,3.1s0,2.1.03,3.07c.02.97.05,1.85.09,2.63.04.79.08,1.36.12,1.74,0,.54.14,1.13.43,1.77.29.64.65,1.23,1.08,1.77.43.54.9,1.03,1.39,1.49.5.45.97.79,1.43.99,1.12.54,2.34.66,3.69.37,1.34-.29,2.66-.89,3.94-1.8,1.28-.91,2.5-2.02,3.66-3.32s2.17-2.66,3.04-4.06c.87-1.41,1.51-2.79,1.92-4.15s.52-2.56.31-3.6c-1.24-.17-2.48-.13-3.72.09-1.24.23-2.47.49-3.69.77-1.22.29-2.45.55-3.69.78-1.24.23-2.5.26-3.78.09-.04-.21-.07-.44-.09-.71-.02-.27,0-.53.06-.77.06-.25.17-.48.31-.68.14-.21.36-.35.65-.43,1.2,0,2.53-.23,4-.68,1.47-.45,2.96-.94,4.46-1.46,1.51-.52,2.97-.94,4.37-1.27,1.41-.33,2.64-.35,3.72-.06.17,1.86-.02,3.92-.56,6.17-.54,2.25-1.33,4.43-2.39,6.54-1.05,2.11-2.35,4.04-3.88,5.8-1.53,1.76-3.19,3.13-4.99,4.12-1.8.99-3.7,1.48-5.7,1.46-2-.02-4-.8-5.98-2.33Z"/>
  </g>
</svg>